<?xml version="1.0" encoding="utf-8"?>
<svg version="1.1" xmlns:xlink="http://www.w3.org/1999/xlink" width="40px" height="40px" xmlns="http://www.w3.org/2000/svg">
  <defs>
    <filter x="-1px" y="-2px" width="40px" height="40px" filterUnits="userSpaceOnUse" id="filter15">
      <feOffset dx="0" dy="0" in="SourceAlpha" result="shadowOffsetInner" />
      <feGaussianBlur stdDeviation="5" in="shadowOffsetInner" result="shadowGaussian" />
      <feComposite in2="shadowGaussian" operator="atop" in="SourceAlpha" result="shadowComposite" />
      <feColorMatrix type="matrix" values="0 0 0 0 0  0 0 0 0 0  0 0 0 0 0  0 0 0 0.313725490196078 0  " in="shadowComposite" />
    </filter>
    <g id="widget16">
      <path d="M 12.9016493585828 5.79108124618204  L 14.208918753818 7.09835064141723  L 17.7886377519853 3.51863164324985  L 16.4813683567502 2.21136224801466  L 12.9016493585828 5.79108124618204  Z M 19.4502138057422 2.96884544899206  C 19.5968234575443 3.11545510079414  19.6701282834453 3.29871716554673  19.6701282834453 3.51863164324985  C 19.6701282834453 3.73854612095296  19.5968234575443 3.92180818570556  19.4502138057422 4.06841783750764  L 3.73854612095296 19.7800855222969  C 3.59193646915089 19.926695174099  3.40867440439829 20  3.18875992669517 20  C 2.96884544899206 20  2.78558338423946 19.926695174099  2.63897373243739 19.7800855222969  L 0.219914477703116 17.3610262675626  C 0.0733048259010387 17.2144166157605  0 17.0311545510079  0 16.8112400733048  C 0 16.5913255956017  0.0733048259010387 16.4080635308491  0.219914477703116 16.261453879047  L 15.9315821624924 0.549786194257789  C 16.0781918142944 0.403176542455712  16.261453879047 0.329871716554673  16.4813683567502 0.329871716554673  C 16.7012828344533 0.329871716554673  16.8845448992059 0.403176542455712  17.0311545510079 0.549786194257789  L 19.4502138057422 2.96884544899206  Z M 2.79780085522297 0  L 3.16432498472816 1.19731215638363  L 4.36163714111179 1.56383628588882  L 3.16432498472816 1.93036041539401  L 2.79780085522297 3.12767257177764  L 2.43127672571778 1.93036041539401  L 1.23396456933415 1.56383628588882  L 2.43127672571778 1.19731215638363  L 2.79780085522297 0  Z M 6.70739156994502 0.781918142944411  L 7.44043982895541 3.17654245571167  L 9.83506414172266 3.90959071472205  L 7.44043982895541 4.64263897373244  L 6.70739156994502 7.0372632864997  L 5.97434331093464 4.64263897373244  L 3.57971899816738 3.90959071472205  L 5.97434331093464 3.17654245571167  L 6.70739156994502 0.781918142944411  Z M 18.4361637141112 7.8191814294441  L 18.8026878436164 9.01649358582773  L 20 9.38301771533293  L 18.8026878436164 9.74954184483812  L 18.4361637141112 10.9468540012217  L 18.069639584606 9.74954184483812  L 16.8723274282224 9.38301771533293  L 18.069639584606 9.01649358582773  L 18.4361637141112 7.8191814294441  Z M 10.6169822846671 0  L 10.9835064141723 1.19731215638363  L 12.1808185705559 1.56383628588882  L 10.9835064141723 1.93036041539401  L 10.6169822846671 3.12767257177764  L 10.2504581551619 1.93036041539401  L 9.05314599877825 1.56383628588882  L 10.2504581551619 1.19731215638363  L 10.6169822846671 0  Z " fill-rule="nonzero" fill="#027db4" stroke="none" transform="matrix(1 0 0 1 9 8 )" />
    </g>
  </defs>
  <g transform="matrix(1 0 0 1 1 2 )">
    <use xlink:href="#widget16" filter="url(#filter15)" />
    <use xlink:href="#widget16" />
  </g>
</svg>